<svg width="1076" height="176" viewBox="0 0 1076 176" fill="none" xmlns="http://www.w3.org/2000/svg">
<g filter="url(#filter0_d_4029_247)">
<rect x="38" y="16" width="1000" height="100" rx="50" fill="white"/>
</g>
<rect x="838" y="16" width="200" height="100" rx="50" fill="#24AB70"/>
<path d="M929.018 69.5811C929.018 70.7119 928.607 71.5938 927.787 72.2266C926.967 72.8594 925.854 73.1758 924.447 73.1758C922.924 73.1758 921.752 72.9795 920.932 72.5869V71.1455C921.459 71.3682 922.033 71.5439 922.654 71.6729C923.275 71.8018 923.891 71.8662 924.5 71.8662C925.496 71.8662 926.246 71.6787 926.75 71.3037C927.254 70.9229 927.506 70.3955 927.506 69.7217C927.506 69.2764 927.415 68.9131 927.233 68.6318C927.058 68.3447 926.759 68.0811 926.337 67.8408C925.921 67.6006 925.285 67.3281 924.43 67.0234C923.234 66.5957 922.379 66.0889 921.863 65.5029C921.354 64.917 921.099 64.1523 921.099 63.209C921.099 62.2188 921.471 61.4307 922.215 60.8447C922.959 60.2588 923.943 59.9658 925.168 59.9658C926.445 59.9658 927.62 60.2002 928.692 60.6689L928.227 61.9697C927.166 61.5244 926.135 61.3018 925.133 61.3018C924.342 61.3018 923.724 61.4717 923.278 61.8115C922.833 62.1514 922.61 62.623 922.61 63.2266C922.61 63.6719 922.692 64.0381 922.856 64.3252C923.021 64.6064 923.296 64.8672 923.683 65.1074C924.075 65.3418 924.673 65.6025 925.476 65.8896C926.823 66.3701 927.749 66.8857 928.253 67.4365C928.763 67.9873 929.018 68.7021 929.018 69.5811ZM935.495 73.1758C934.071 73.1758 932.946 72.7422 932.12 71.875C931.3 71.0078 930.89 69.8037 930.89 68.2627C930.89 66.71 931.271 65.4766 932.032 64.5625C932.8 63.6484 933.828 63.1914 935.117 63.1914C936.324 63.1914 937.279 63.5898 937.982 64.3867C938.686 65.1777 939.037 66.2236 939.037 67.5244V68.4473H932.401C932.431 69.5781 932.715 70.4365 933.254 71.0225C933.799 71.6084 934.563 71.9014 935.548 71.9014C936.585 71.9014 937.61 71.6846 938.624 71.251V72.5518C938.108 72.7744 937.619 72.9326 937.156 73.0264C936.699 73.126 936.146 73.1758 935.495 73.1758ZM935.1 64.4131C934.326 64.4131 933.708 64.665 933.245 65.1689C932.788 65.6729 932.519 66.3701 932.437 67.2607H937.473C937.473 66.3408 937.268 65.6377 936.857 65.1514C936.447 64.6592 935.861 64.4131 935.1 64.4131ZM947.457 73L947.167 71.6289H947.097C946.616 72.2324 946.136 72.6426 945.655 72.8594C945.181 73.0703 944.586 73.1758 943.871 73.1758C942.916 73.1758 942.166 72.9297 941.621 72.4375C941.082 71.9453 940.812 71.2451 940.812 70.3369C940.812 68.3916 942.368 67.3721 945.479 67.2783L947.114 67.2256V66.6279C947.114 65.8721 946.95 65.3154 946.622 64.958C946.3 64.5947 945.781 64.4131 945.066 64.4131C944.264 64.4131 943.355 64.6592 942.342 65.1514L941.894 64.0352C942.368 63.7773 942.887 63.5752 943.449 63.4287C944.018 63.2822 944.586 63.209 945.154 63.209C946.303 63.209 947.152 63.4639 947.703 63.9736C948.26 64.4834 948.538 65.3008 948.538 66.4258V73H947.457ZM944.161 71.9717C945.069 71.9717 945.781 71.7227 946.297 71.2246C946.818 70.7266 947.079 70.0293 947.079 69.1328V68.2627L945.62 68.3242C944.46 68.3652 943.622 68.5469 943.106 68.8691C942.597 69.1855 942.342 69.6807 942.342 70.3545C942.342 70.8818 942.5 71.2832 942.816 71.5586C943.139 71.834 943.587 71.9717 944.161 71.9717ZM955.947 63.1914C956.375 63.1914 956.759 63.2266 957.099 63.2969L956.896 64.6504C956.498 64.5625 956.146 64.5186 955.842 64.5186C955.062 64.5186 954.395 64.835 953.838 65.4678C953.287 66.1006 953.012 66.8887 953.012 67.832V73H951.553V63.3672H952.757L952.924 65.1514H952.994C953.352 64.5244 953.782 64.041 954.286 63.7012C954.79 63.3613 955.344 63.1914 955.947 63.1914ZM962.75 73.1758C961.355 73.1758 960.274 72.748 959.507 71.8926C958.745 71.0312 958.364 69.8154 958.364 68.2451C958.364 66.6338 958.751 65.3887 959.524 64.5098C960.304 63.6309 961.411 63.1914 962.847 63.1914C963.31 63.1914 963.772 63.2412 964.235 63.3408C964.698 63.4404 965.062 63.5576 965.325 63.6924L964.877 64.9316C964.555 64.8027 964.203 64.6973 963.822 64.6152C963.441 64.5273 963.104 64.4834 962.812 64.4834C960.854 64.4834 959.876 65.7314 959.876 68.2275C959.876 69.4111 960.113 70.3193 960.588 70.9521C961.068 71.585 961.777 71.9014 962.715 71.9014C963.518 71.9014 964.341 71.7285 965.185 71.3828V72.6748C964.54 73.0088 963.729 73.1758 962.75 73.1758ZM974.07 73V66.7686C974.07 65.9834 973.892 65.3975 973.534 65.0107C973.177 64.624 972.617 64.4307 971.855 64.4307C970.842 64.4307 970.101 64.7061 969.632 65.2568C969.169 65.8076 968.938 66.71 968.938 67.9639V73H967.479V59.3242H968.938V63.4639C968.938 63.9619 968.914 64.375 968.867 64.7031H968.955C969.242 64.2402 969.649 63.877 970.177 63.6133C970.71 63.3438 971.316 63.209 971.996 63.209C973.174 63.209 974.056 63.4902 974.642 64.0527C975.233 64.6094 975.529 65.4971 975.529 66.7158V73H974.07ZM978.324 72.0684C978.324 71.6758 978.412 71.3799 978.588 71.1807C978.77 70.9756 979.027 70.873 979.361 70.873C979.701 70.873 979.965 70.9756 980.152 71.1807C980.346 71.3799 980.442 71.6758 980.442 72.0684C980.442 72.4492 980.346 72.7422 980.152 72.9473C979.959 73.1523 979.695 73.2549 979.361 73.2549C979.062 73.2549 978.813 73.1641 978.614 72.9824C978.421 72.7949 978.324 72.4902 978.324 72.0684ZM983.123 72.0684C983.123 71.6758 983.211 71.3799 983.387 71.1807C983.568 70.9756 983.826 70.873 984.16 70.873C984.5 70.873 984.764 70.9756 984.951 71.1807C985.145 71.3799 985.241 71.6758 985.241 72.0684C985.241 72.4492 985.145 72.7422 984.951 72.9473C984.758 73.1523 984.494 73.2549 984.16 73.2549C983.861 73.2549 983.612 73.1641 983.413 72.9824C983.22 72.7949 983.123 72.4902 983.123 72.0684ZM987.922 72.0684C987.922 71.6758 988.01 71.3799 988.186 71.1807C988.367 70.9756 988.625 70.873 988.959 70.873C989.299 70.873 989.562 70.9756 989.75 71.1807C989.943 71.3799 990.04 71.6758 990.04 72.0684C990.04 72.4492 989.943 72.7422 989.75 72.9473C989.557 73.1523 989.293 73.2549 988.959 73.2549C988.66 73.2549 988.411 73.1641 988.212 72.9824C988.019 72.7949 987.922 72.4902 987.922 72.0684Z" fill="white"/>
<g clip-path="url(#clip0_4029_247)">
<path d="M904.71 73.29L901.31 69.9C902.407 68.5025 903.002 66.7767 903 65C903 63.4178 902.531 61.871 901.652 60.5554C900.773 59.2398 899.523 58.2145 898.061 57.609C896.6 57.0035 894.991 56.845 893.439 57.1537C891.887 57.4624 890.462 58.2243 889.343 59.3431C888.224 60.462 887.462 61.8874 887.154 63.4393C886.845 64.9911 887.003 66.5997 887.609 68.0615C888.214 69.5233 889.24 70.7727 890.555 71.6518C891.871 72.5308 893.418 73 895 73C896.777 73.0022 898.502 72.407 899.9 71.31L903.29 74.71C903.383 74.8037 903.494 74.8781 903.615 74.9289C903.737 74.9797 903.868 75.0058 904 75.0058C904.132 75.0058 904.263 74.9797 904.385 74.9289C904.506 74.8781 904.617 74.8037 904.71 74.71C904.804 74.617 904.878 74.5064 904.929 74.3846C904.98 74.2627 905.006 74.132 905.006 74C905.006 73.868 904.98 73.7373 904.929 73.6154C904.878 73.4936 904.804 73.383 904.71 73.29ZM889 65C889 63.8133 889.352 62.6533 890.011 61.6666C890.67 60.6799 891.608 59.9109 892.704 59.4567C893.8 59.0026 895.007 58.8838 896.171 59.1153C897.334 59.3468 898.404 59.9182 899.243 60.7574C900.082 61.5965 900.653 62.6656 900.885 63.8295C901.116 64.9933 900.997 66.1997 900.543 67.2961C900.089 68.3925 899.32 69.3295 898.333 69.9888C897.347 70.6481 896.187 71 895 71C893.409 71 891.883 70.3679 890.757 69.2426C889.632 68.1174 889 66.5913 889 65Z" fill="white"/>
</g>
<path d="M292.076 49.002C290.507 49.002 289.267 49.526 288.355 50.5742C287.451 51.6159 286.998 53.0449 286.998 54.8613C286.998 56.7298 287.434 58.1751 288.307 59.1973C289.186 60.2129 290.436 60.7207 292.057 60.7207C293.053 60.7207 294.189 60.5417 295.465 60.1836V61.6387C294.475 62.0098 293.255 62.1953 291.803 62.1953C289.7 62.1953 288.076 61.5573 286.93 60.2812C285.79 59.0052 285.221 57.1921 285.221 54.8418C285.221 53.3704 285.494 52.0814 286.041 50.9746C286.594 49.8678 287.389 49.015 288.424 48.416C289.465 47.8171 290.689 47.5176 292.096 47.5176C293.593 47.5176 294.902 47.791 296.021 48.3379L295.318 49.7637C294.238 49.2559 293.157 49.002 292.076 49.002ZM305.66 62V55.0762C305.66 54.2038 305.462 53.5527 305.064 53.123C304.667 52.6934 304.046 52.4785 303.199 52.4785C302.073 52.4785 301.249 52.7845 300.729 53.3965C300.214 54.0085 299.957 55.0111 299.957 56.4043V62H298.336V46.8047H299.957V51.4043C299.957 51.9577 299.931 52.4167 299.879 52.7812H299.977C300.296 52.2669 300.748 51.8633 301.334 51.5703C301.926 51.2708 302.6 51.1211 303.355 51.1211C304.664 51.1211 305.644 51.4336 306.295 52.0586C306.952 52.6771 307.281 53.6634 307.281 55.0176V62H305.66ZM317.203 62L316.881 60.4766H316.803C316.269 61.1471 315.735 61.6029 315.201 61.8438C314.674 62.0781 314.013 62.1953 313.219 62.1953C312.158 62.1953 311.324 61.9219 310.719 61.375C310.12 60.8281 309.82 60.0501 309.82 59.041C309.82 56.8796 311.549 55.7467 315.006 55.6426L316.822 55.584V54.9199C316.822 54.0801 316.64 53.4616 316.275 53.0645C315.917 52.6608 315.341 52.459 314.547 52.459C313.655 52.459 312.646 52.7324 311.52 53.2793L311.021 52.0391C311.549 51.7526 312.125 51.528 312.75 51.3652C313.382 51.2025 314.013 51.1211 314.645 51.1211C315.921 51.1211 316.865 51.4043 317.477 51.9707C318.095 52.5371 318.404 53.4453 318.404 54.6953V62H317.203ZM313.541 60.8574C314.55 60.8574 315.341 60.5807 315.914 60.0273C316.493 59.474 316.783 58.6992 316.783 57.7031V56.7363L315.162 56.8047C313.873 56.8503 312.942 57.0521 312.369 57.4102C311.803 57.7617 311.52 58.3118 311.52 59.0605C311.52 59.6465 311.695 60.0924 312.047 60.3984C312.405 60.7044 312.903 60.8574 313.541 60.8574ZM326.031 62.1953C324.482 62.1953 323.281 61.7201 322.428 60.7695C321.581 59.8125 321.158 58.4616 321.158 56.7168C321.158 54.9264 321.588 53.543 322.447 52.5664C323.313 51.5898 324.544 51.1016 326.139 51.1016C326.653 51.1016 327.167 51.1569 327.682 51.2676C328.196 51.3783 328.6 51.5085 328.893 51.6582L328.395 53.0352C328.036 52.8919 327.646 52.7747 327.223 52.6836C326.799 52.5859 326.425 52.5371 326.1 52.5371C323.925 52.5371 322.838 53.9238 322.838 56.6973C322.838 58.0124 323.102 59.0215 323.629 59.7246C324.163 60.4277 324.951 60.7793 325.992 60.7793C326.884 60.7793 327.799 60.5872 328.736 60.2031V61.6387C328.02 62.0098 327.118 62.1953 326.031 62.1953ZM332.887 56.5215C333.167 56.1243 333.593 55.6035 334.166 54.959L337.623 51.2969H339.547L335.211 55.8574L339.85 62H337.887L334.107 56.9414L332.887 57.9961V62H331.285V46.8047H332.887V54.8613C332.887 55.2194 332.861 55.7728 332.809 56.5215H332.887ZM348.609 62H346.988V51.2969H348.609V62ZM346.852 48.3965C346.852 48.0254 346.943 47.7552 347.125 47.5859C347.307 47.4102 347.535 47.3223 347.809 47.3223C348.069 47.3223 348.294 47.4102 348.482 47.5859C348.671 47.7617 348.766 48.0319 348.766 48.3965C348.766 48.7611 348.671 49.0345 348.482 49.2168C348.294 49.3926 348.069 49.4805 347.809 49.4805C347.535 49.4805 347.307 49.3926 347.125 49.2168C346.943 49.0345 346.852 48.7611 346.852 48.3965ZM359.371 62V55.0762C359.371 54.2038 359.173 53.5527 358.775 53.123C358.378 52.6934 357.757 52.4785 356.91 52.4785C355.79 52.4785 354.97 52.7812 354.449 53.3867C353.928 53.9922 353.668 54.9915 353.668 56.3848V62H352.047V51.2969H353.365L353.629 52.7617H353.707C354.039 52.2344 354.505 51.8275 355.104 51.541C355.702 51.248 356.37 51.1016 357.105 51.1016C358.395 51.1016 359.365 51.4141 360.016 52.0391C360.667 52.6576 360.992 53.6504 360.992 55.0176V62H359.371Z" fill="#222222"/>
<path d="M288.888 87H287.78V79.877C287.78 79.2845 287.799 78.724 287.835 78.1953C287.739 78.291 287.632 78.3913 287.514 78.4961C287.395 78.6009 286.853 79.0452 285.887 79.8291L285.285 79.0498L287.931 77.0059H288.888V87ZM299.319 81.9893C299.319 83.7165 299.046 85.0062 298.499 85.8584C297.957 86.7106 297.125 87.1367 296.004 87.1367C294.928 87.1367 294.11 86.7015 293.55 85.8311C292.989 84.9561 292.709 83.6755 292.709 81.9893C292.709 80.2484 292.98 78.9564 293.522 78.1133C294.065 77.2702 294.892 76.8486 296.004 76.8486C297.089 76.8486 297.911 77.2884 298.472 78.168C299.037 79.0475 299.319 80.3213 299.319 81.9893ZM293.857 81.9893C293.857 83.443 294.028 84.5026 294.37 85.168C294.712 85.8288 295.257 86.1592 296.004 86.1592C296.76 86.1592 297.307 85.8242 297.645 85.1543C297.986 84.4798 298.157 83.4248 298.157 81.9893C298.157 80.5537 297.986 79.5033 297.645 78.8379C297.307 78.168 296.76 77.833 296.004 77.833C295.257 77.833 294.712 78.1634 294.37 78.8242C294.028 79.4805 293.857 80.5355 293.857 81.9893ZM303.578 89.6318C303.15 89.6318 302.812 89.5703 302.566 89.4473V88.4561C302.89 88.5472 303.227 88.5928 303.578 88.5928C304.029 88.5928 304.371 88.4561 304.604 88.1826C304.84 87.9092 304.959 87.515 304.959 87V77.0059H306.121V86.9043C306.121 87.7702 305.902 88.4401 305.465 88.9141C305.027 89.3926 304.398 89.6318 303.578 89.6318ZM309.676 79.5078V84.3682C309.676 84.9788 309.815 85.4346 310.093 85.7354C310.371 86.0361 310.806 86.1865 311.398 86.1865C312.182 86.1865 312.754 85.9723 313.114 85.5439C313.479 85.1156 313.661 84.416 313.661 83.4453V79.5078H314.796V87H313.859L313.695 85.9951H313.634C313.401 86.3643 313.078 86.6468 312.663 86.8428C312.253 87.0387 311.784 87.1367 311.255 87.1367C310.343 87.1367 309.66 86.9202 309.204 86.4873C308.753 86.0544 308.527 85.3617 308.527 84.4092V79.5078H309.676ZM322.336 87V82.1533C322.336 81.5426 322.197 81.0869 321.919 80.7861C321.641 80.4854 321.206 80.335 320.613 80.335C319.829 80.335 319.255 80.5469 318.891 80.9707C318.526 81.3945 318.344 82.0941 318.344 83.0693V87H317.209V79.5078H318.132L318.316 80.5332H318.371C318.604 80.1641 318.929 79.8792 319.349 79.6787C319.768 79.4736 320.235 79.3711 320.75 79.3711C321.652 79.3711 322.331 79.5898 322.787 80.0273C323.243 80.4603 323.471 81.1553 323.471 82.1123V87H322.336ZM335.495 87H328.926V86.0225L331.558 83.377C332.36 82.5658 332.888 81.987 333.144 81.6406C333.399 81.2943 333.59 80.957 333.718 80.6289C333.845 80.3008 333.909 79.9476 333.909 79.5693C333.909 79.0361 333.747 78.6146 333.424 78.3047C333.1 77.9902 332.651 77.833 332.077 77.833C331.662 77.833 331.268 77.9014 330.895 78.0381C330.525 78.1748 330.113 78.4232 329.657 78.7832L329.056 78.0107C329.976 77.2451 330.979 76.8623 332.063 76.8623C333.002 76.8623 333.738 77.1038 334.271 77.5869C334.805 78.0654 335.071 78.7103 335.071 79.5215C335.071 80.1549 334.894 80.7816 334.538 81.4014C334.183 82.0212 333.517 82.805 332.542 83.7529L330.354 85.8926V85.9473H335.495V87ZM343.562 81.9893C343.562 83.7165 343.288 85.0062 342.741 85.8584C342.199 86.7106 341.367 87.1367 340.246 87.1367C339.171 87.1367 338.353 86.7015 337.792 85.8311C337.231 84.9561 336.951 83.6755 336.951 81.9893C336.951 80.2484 337.222 78.9564 337.765 78.1133C338.307 77.2702 339.134 76.8486 340.246 76.8486C341.331 76.8486 342.153 77.2884 342.714 78.168C343.279 79.0475 343.562 80.3213 343.562 81.9893ZM338.1 81.9893C338.1 83.443 338.271 84.5026 338.612 85.168C338.954 85.8288 339.499 86.1592 340.246 86.1592C341.003 86.1592 341.549 85.8242 341.887 85.1543C342.229 84.4798 342.399 83.4248 342.399 81.9893C342.399 80.5537 342.229 79.5033 341.887 78.8379C341.549 78.168 341.003 77.833 340.246 77.833C339.499 77.833 338.954 78.1634 338.612 78.8242C338.271 79.4805 338.1 80.5355 338.1 81.9893ZM351.519 87H344.949V86.0225L347.581 83.377C348.383 82.5658 348.912 81.987 349.167 81.6406C349.422 81.2943 349.614 80.957 349.741 80.6289C349.869 80.3008 349.933 79.9476 349.933 79.5693C349.933 79.0361 349.771 78.6146 349.447 78.3047C349.124 77.9902 348.675 77.833 348.101 77.833C347.686 77.833 347.292 77.9014 346.918 78.0381C346.549 78.1748 346.136 78.4232 345.681 78.7832L345.079 78.0107C346 77.2451 347.002 76.8623 348.087 76.8623C349.026 76.8623 349.762 77.1038 350.295 77.5869C350.828 78.0654 351.095 78.7103 351.095 79.5215C351.095 80.1549 350.917 80.7816 350.562 81.4014C350.206 82.0212 349.541 82.805 348.565 83.7529L346.378 85.8926V85.9473H351.519V87ZM357.165 87H356.058V79.877C356.058 79.2845 356.076 78.724 356.112 78.1953C356.017 78.291 355.91 78.3913 355.791 78.4961C355.673 78.6009 355.13 79.0452 354.164 79.8291L353.562 79.0498L356.208 77.0059H357.165V87Z" fill="#555555"/>
<g clip-path="url(#clip1_4029_247)">
<path d="M268 46H267V45C267 44.7348 266.895 44.4804 266.707 44.2929C266.52 44.1054 266.265 44 266 44C265.735 44 265.48 44.1054 265.293 44.2929C265.105 44.4804 265 44.7348 265 45V46H259V45C259 44.7348 258.895 44.4804 258.707 44.2929C258.52 44.1054 258.265 44 258 44C257.735 44 257.48 44.1054 257.293 44.2929C257.105 44.4804 257 44.7348 257 45V46H256C255.204 46 254.441 46.3161 253.879 46.8787C253.316 47.4413 253 48.2044 253 49V61C253 61.7956 253.316 62.5587 253.879 63.1213C254.441 63.6839 255.204 64 256 64H268C268.796 64 269.559 63.6839 270.121 63.1213C270.684 62.5587 271 61.7956 271 61V49C271 48.2044 270.684 47.4413 270.121 46.8787C269.559 46.3161 268.796 46 268 46ZM258 59C257.802 59 257.609 58.9414 257.444 58.8315C257.28 58.7216 257.152 58.5654 257.076 58.3827C257 58.2 256.981 57.9989 257.019 57.8049C257.058 57.6109 257.153 57.4327 257.293 57.2929C257.433 57.153 257.611 57.0578 257.805 57.0192C257.999 56.9806 258.2 57.0004 258.383 57.0761C258.565 57.1518 258.722 57.28 258.831 57.4444C258.941 57.6089 259 57.8022 259 58C259 58.2652 258.895 58.5196 258.707 58.7071C258.52 58.8946 258.265 59 258 59ZM266 59H262C261.735 59 261.48 58.8946 261.293 58.7071C261.105 58.5196 261 58.2652 261 58C261 57.7348 261.105 57.4804 261.293 57.2929C261.48 57.1054 261.735 57 262 57H266C266.265 57 266.52 57.1054 266.707 57.2929C266.895 57.4804 267 57.7348 267 58C267 58.2652 266.895 58.5196 266.707 58.7071C266.52 58.8946 266.265 59 266 59ZM269 53H255V49C255 48.7348 255.105 48.4804 255.293 48.2929C255.48 48.1054 255.735 48 256 48H257V49C257 49.2652 257.105 49.5196 257.293 49.7071C257.48 49.8946 257.735 50 258 50C258.265 50 258.52 49.8946 258.707 49.7071C258.895 49.5196 259 49.2652 259 49V48H265V49C265 49.2652 265.105 49.5196 265.293 49.7071C265.48 49.8946 265.735 50 266 50C266.265 50 266.52 49.8946 266.707 49.7071C266.895 49.5196 267 49.2652 267 49V48H268C268.265 48 268.52 48.1054 268.707 48.2929C268.895 48.4804 269 48.7348 269 49V53Z" fill="#24AB70"/>
</g>
<path d="M465.076 49.002C463.507 49.002 462.267 49.526 461.355 50.5742C460.451 51.6159 459.998 53.0449 459.998 54.8613C459.998 56.7298 460.434 58.1751 461.307 59.1973C462.186 60.2129 463.436 60.7207 465.057 60.7207C466.053 60.7207 467.189 60.5417 468.465 60.1836V61.6387C467.475 62.0098 466.255 62.1953 464.803 62.1953C462.7 62.1953 461.076 61.5573 459.93 60.2812C458.79 59.0052 458.221 57.1921 458.221 54.8418C458.221 53.3704 458.494 52.0814 459.041 50.9746C459.594 49.8678 460.389 49.015 461.424 48.416C462.465 47.8171 463.689 47.5176 465.096 47.5176C466.593 47.5176 467.902 47.791 469.021 48.3379L468.318 49.7637C467.238 49.2559 466.157 49.002 465.076 49.002ZM478.66 62V55.0762C478.66 54.2038 478.462 53.5527 478.064 53.123C477.667 52.6934 477.046 52.4785 476.199 52.4785C475.073 52.4785 474.249 52.7845 473.729 53.3965C473.214 54.0085 472.957 55.0111 472.957 56.4043V62H471.336V46.8047H472.957V51.4043C472.957 51.9577 472.931 52.4167 472.879 52.7812H472.977C473.296 52.2669 473.748 51.8633 474.334 51.5703C474.926 51.2708 475.6 51.1211 476.355 51.1211C477.664 51.1211 478.644 51.4336 479.295 52.0586C479.952 52.6771 480.281 53.6634 480.281 55.0176V62H478.66ZM490.203 62L489.881 60.4766H489.803C489.269 61.1471 488.735 61.6029 488.201 61.8438C487.674 62.0781 487.013 62.1953 486.219 62.1953C485.158 62.1953 484.324 61.9219 483.719 61.375C483.12 60.8281 482.82 60.0501 482.82 59.041C482.82 56.8796 484.549 55.7467 488.006 55.6426L489.822 55.584V54.9199C489.822 54.0801 489.64 53.4616 489.275 53.0645C488.917 52.6608 488.341 52.459 487.547 52.459C486.655 52.459 485.646 52.7324 484.52 53.2793L484.021 52.0391C484.549 51.7526 485.125 51.528 485.75 51.3652C486.382 51.2025 487.013 51.1211 487.645 51.1211C488.921 51.1211 489.865 51.4043 490.477 51.9707C491.095 52.5371 491.404 53.4453 491.404 54.6953V62H490.203ZM486.541 60.8574C487.55 60.8574 488.341 60.5807 488.914 60.0273C489.493 59.474 489.783 58.6992 489.783 57.7031V56.7363L488.162 56.8047C486.873 56.8503 485.942 57.0521 485.369 57.4102C484.803 57.7617 484.52 58.3118 484.52 59.0605C484.52 59.6465 484.695 60.0924 485.047 60.3984C485.405 60.7044 485.903 60.8574 486.541 60.8574ZM499.031 62.1953C497.482 62.1953 496.281 61.7201 495.428 60.7695C494.581 59.8125 494.158 58.4616 494.158 56.7168C494.158 54.9264 494.588 53.543 495.447 52.5664C496.313 51.5898 497.544 51.1016 499.139 51.1016C499.653 51.1016 500.167 51.1569 500.682 51.2676C501.196 51.3783 501.6 51.5085 501.893 51.6582L501.395 53.0352C501.036 52.8919 500.646 52.7747 500.223 52.6836C499.799 52.5859 499.425 52.5371 499.1 52.5371C496.925 52.5371 495.838 53.9238 495.838 56.6973C495.838 58.0124 496.102 59.0215 496.629 59.7246C497.163 60.4277 497.951 60.7793 498.992 60.7793C499.884 60.7793 500.799 60.5872 501.736 60.2031V61.6387C501.02 62.0098 500.118 62.1953 499.031 62.1953ZM505.887 56.5215C506.167 56.1243 506.593 55.6035 507.166 54.959L510.623 51.2969H512.547L508.211 55.8574L512.85 62H510.887L507.107 56.9414L505.887 57.9961V62H504.285V46.8047H505.887V54.8613C505.887 55.2194 505.861 55.7728 505.809 56.5215H505.887ZM529.227 56.6387C529.227 58.3835 528.787 59.7474 527.908 60.7305C527.029 61.707 525.815 62.1953 524.266 62.1953C523.309 62.1953 522.459 61.9707 521.717 61.5215C520.975 61.0723 520.402 60.4277 519.998 59.5879C519.594 58.748 519.393 57.765 519.393 56.6387C519.393 54.8939 519.829 53.5365 520.701 52.5664C521.574 51.5898 522.785 51.1016 524.334 51.1016C525.831 51.1016 527.02 51.5996 527.898 52.5957C528.784 53.5918 529.227 54.9395 529.227 56.6387ZM521.072 56.6387C521.072 58.0059 521.346 59.0475 521.893 59.7637C522.439 60.4798 523.243 60.8379 524.305 60.8379C525.366 60.8379 526.17 60.4831 526.717 59.7734C527.27 59.0573 527.547 58.0124 527.547 56.6387C527.547 55.278 527.27 54.2461 526.717 53.543C526.17 52.8333 525.359 52.4785 524.285 52.4785C523.224 52.4785 522.423 52.8268 521.883 53.5234C521.342 54.2201 521.072 55.2585 521.072 56.6387ZM533.602 51.2969V58.2402C533.602 59.1126 533.8 59.7637 534.197 60.1934C534.594 60.623 535.216 60.8379 536.062 60.8379C537.182 60.8379 537.999 60.5319 538.514 59.9199C539.035 59.3079 539.295 58.3086 539.295 56.9219V51.2969H540.916V62H539.578L539.344 60.5645H539.256C538.924 61.0918 538.462 61.4954 537.869 61.7754C537.283 62.0553 536.613 62.1953 535.857 62.1953C534.555 62.1953 533.579 61.8861 532.928 61.2676C532.283 60.6491 531.961 59.6595 531.961 58.2988V51.2969H533.602ZM547.82 60.8574C548.107 60.8574 548.383 60.8379 548.65 60.7988C548.917 60.7533 549.129 60.7077 549.285 60.6621V61.9023C549.109 61.987 548.849 62.0553 548.504 62.1074C548.165 62.166 547.859 62.1953 547.586 62.1953C545.516 62.1953 544.48 61.1048 544.48 58.9238V52.5566H542.947V51.7754L544.48 51.1016L545.164 48.8164H546.102V51.2969H549.207V52.5566H546.102V58.8555C546.102 59.5 546.255 59.9948 546.561 60.3398C546.867 60.6849 547.286 60.8574 547.82 60.8574Z" fill="#222222"/>
<path d="M461.888 87H460.78V79.877C460.78 79.2845 460.799 78.724 460.835 78.1953C460.739 78.291 460.632 78.3913 460.514 78.4961C460.395 78.6009 459.853 79.0452 458.887 79.8291L458.285 79.0498L460.931 77.0059H461.888V87ZM468.819 80.8955C469.872 80.8955 470.699 81.1576 471.301 81.6816C471.907 82.2012 472.21 82.9144 472.21 83.8213C472.21 84.8558 471.88 85.667 471.219 86.2549C470.562 86.8428 469.656 87.1367 468.498 87.1367C467.372 87.1367 466.513 86.9567 465.921 86.5967V85.5029C466.24 85.708 466.636 85.8698 467.11 85.9883C467.584 86.1022 468.051 86.1592 468.512 86.1592C469.314 86.1592 469.936 85.9701 470.378 85.5918C470.825 85.2135 471.048 84.6667 471.048 83.9512C471.048 82.5566 470.193 81.8594 468.484 81.8594C468.051 81.8594 467.473 81.9255 466.748 82.0576L466.16 81.6816L466.536 77.0059H471.506V78.0518H467.507L467.254 81.0527C467.778 80.9479 468.3 80.8955 468.819 80.8955ZM476.578 89.6318C476.15 89.6318 475.812 89.5703 475.566 89.4473V88.4561C475.89 88.5472 476.227 88.5928 476.578 88.5928C477.029 88.5928 477.371 88.4561 477.604 88.1826C477.84 87.9092 477.959 87.515 477.959 87V77.0059H479.121V86.9043C479.121 87.7702 478.902 88.4401 478.465 88.9141C478.027 89.3926 477.398 89.6318 476.578 89.6318ZM482.676 79.5078V84.3682C482.676 84.9788 482.815 85.4346 483.093 85.7354C483.371 86.0361 483.806 86.1865 484.398 86.1865C485.182 86.1865 485.754 85.9723 486.114 85.5439C486.479 85.1156 486.661 84.416 486.661 83.4453V79.5078H487.796V87H486.859L486.695 85.9951H486.634C486.401 86.3643 486.078 86.6468 485.663 86.8428C485.253 87.0387 484.784 87.1367 484.255 87.1367C483.343 87.1367 482.66 86.9202 482.204 86.4873C481.753 86.0544 481.527 85.3617 481.527 84.4092V79.5078H482.676ZM495.336 87V82.1533C495.336 81.5426 495.197 81.0869 494.919 80.7861C494.641 80.4854 494.206 80.335 493.613 80.335C492.829 80.335 492.255 80.5469 491.891 80.9707C491.526 81.3945 491.344 82.0941 491.344 83.0693V87H490.209V79.5078H491.132L491.316 80.5332H491.371C491.604 80.1641 491.929 79.8792 492.349 79.6787C492.768 79.4736 493.235 79.3711 493.75 79.3711C494.652 79.3711 495.331 79.5898 495.787 80.0273C496.243 80.4603 496.471 81.1553 496.471 82.1123V87H495.336ZM508.495 87H501.926V86.0225L504.558 83.377C505.36 82.5658 505.888 81.987 506.144 81.6406C506.399 81.2943 506.59 80.957 506.718 80.6289C506.845 80.3008 506.909 79.9476 506.909 79.5693C506.909 79.0361 506.747 78.6146 506.424 78.3047C506.1 77.9902 505.651 77.833 505.077 77.833C504.662 77.833 504.268 77.9014 503.895 78.0381C503.525 78.1748 503.113 78.4232 502.657 78.7832L502.056 78.0107C502.976 77.2451 503.979 76.8623 505.063 76.8623C506.002 76.8623 506.738 77.1038 507.271 77.5869C507.805 78.0654 508.071 78.7103 508.071 79.5215C508.071 80.1549 507.894 80.7816 507.538 81.4014C507.183 82.0212 506.517 82.805 505.542 83.7529L503.354 85.8926V85.9473H508.495V87ZM516.562 81.9893C516.562 83.7165 516.288 85.0062 515.741 85.8584C515.199 86.7106 514.367 87.1367 513.246 87.1367C512.171 87.1367 511.353 86.7015 510.792 85.8311C510.231 84.9561 509.951 83.6755 509.951 81.9893C509.951 80.2484 510.222 78.9564 510.765 78.1133C511.307 77.2702 512.134 76.8486 513.246 76.8486C514.331 76.8486 515.153 77.2884 515.714 78.168C516.279 79.0475 516.562 80.3213 516.562 81.9893ZM511.1 81.9893C511.1 83.443 511.271 84.5026 511.612 85.168C511.954 85.8288 512.499 86.1592 513.246 86.1592C514.003 86.1592 514.549 85.8242 514.887 85.1543C515.229 84.4798 515.399 83.4248 515.399 81.9893C515.399 80.5537 515.229 79.5033 514.887 78.8379C514.549 78.168 514.003 77.833 513.246 77.833C512.499 77.833 511.954 78.1634 511.612 78.8242C511.271 79.4805 511.1 80.5355 511.1 81.9893ZM524.519 87H517.949V86.0225L520.581 83.377C521.383 82.5658 521.912 81.987 522.167 81.6406C522.422 81.2943 522.614 80.957 522.741 80.6289C522.869 80.3008 522.933 79.9476 522.933 79.5693C522.933 79.0361 522.771 78.6146 522.447 78.3047C522.124 77.9902 521.675 77.833 521.101 77.833C520.686 77.833 520.292 77.9014 519.918 78.0381C519.549 78.1748 519.136 78.4232 518.681 78.7832L518.079 78.0107C519 77.2451 520.002 76.8623 521.087 76.8623C522.026 76.8623 522.762 77.1038 523.295 77.5869C523.828 78.0654 524.095 78.7103 524.095 79.5215C524.095 80.1549 523.917 80.7816 523.562 81.4014C523.206 82.0212 522.541 82.805 521.565 83.7529L519.378 85.8926V85.9473H524.519V87ZM530.165 87H529.058V79.877C529.058 79.2845 529.076 78.724 529.112 78.1953C529.017 78.291 528.91 78.3913 528.791 78.4961C528.673 78.6009 528.13 79.0452 527.164 79.8291L526.562 79.0498L529.208 77.0059H530.165V87Z" fill="#555555"/>
<g clip-path="url(#clip2_4029_247)">
<path d="M441 46H440V45C440 44.7348 439.895 44.4804 439.707 44.2929C439.52 44.1054 439.265 44 439 44C438.735 44 438.48 44.1054 438.293 44.2929C438.105 44.4804 438 44.7348 438 45V46H432V45C432 44.7348 431.895 44.4804 431.707 44.2929C431.52 44.1054 431.265 44 431 44C430.735 44 430.48 44.1054 430.293 44.2929C430.105 44.4804 430 44.7348 430 45V46H429C428.204 46 427.441 46.3161 426.879 46.8787C426.316 47.4413 426 48.2044 426 49V61C426 61.7956 426.316 62.5587 426.879 63.1213C427.441 63.6839 428.204 64 429 64H441C441.796 64 442.559 63.6839 443.121 63.1213C443.684 62.5587 444 61.7956 444 61V49C444 48.2044 443.684 47.4413 443.121 46.8787C442.559 46.3161 441.796 46 441 46ZM431 59C430.802 59 430.609 58.9414 430.444 58.8315C430.28 58.7216 430.152 58.5654 430.076 58.3827C430 58.2 429.981 57.9989 430.019 57.8049C430.058 57.6109 430.153 57.4327 430.293 57.2929C430.433 57.153 430.611 57.0578 430.805 57.0192C430.999 56.9806 431.2 57.0004 431.383 57.0761C431.565 57.1518 431.722 57.28 431.831 57.4444C431.941 57.6089 432 57.8022 432 58C432 58.2652 431.895 58.5196 431.707 58.7071C431.52 58.8946 431.265 59 431 59ZM439 59H435C434.735 59 434.48 58.8946 434.293 58.7071C434.105 58.5196 434 58.2652 434 58C434 57.7348 434.105 57.4804 434.293 57.2929C434.48 57.1054 434.735 57 435 57H439C439.265 57 439.52 57.1054 439.707 57.2929C439.895 57.4804 440 57.7348 440 58C440 58.2652 439.895 58.5196 439.707 58.7071C439.52 58.8946 439.265 59 439 59ZM442 53H428V49C428 48.7348 428.105 48.4804 428.293 48.2929C428.48 48.1054 428.735 48 429 48H430V49C430 49.2652 430.105 49.5196 430.293 49.7071C430.48 49.8946 430.735 50 431 50C431.265 50 431.52 49.8946 431.707 49.7071C431.895 49.5196 432 49.2652 432 49V48H438V49C438 49.2652 438.105 49.5196 438.293 49.7071C438.48 49.8946 438.735 50 439 50C439.265 50 439.52 49.8946 439.707 49.7071C439.895 49.5196 440 49.2652 440 49V48H441C441.265 48 441.52 48.1054 441.707 48.2929C441.895 48.4804 442 48.7348 442 49V53Z" fill="#24AB70"/>
</g>
<line x1="393.5" y1="36" x2="393.5" y2="96" stroke="#E8E8E8"/>
<line x1="220.5" y1="36" x2="220.5" y2="96" stroke="#E8E8E8"/>
<line x1="580.5" y1="36" x2="580.5" y2="96" stroke="#E8E8E8"/>
<path d="M647.623 56.0625V62H645.963V47.7227H649.879C651.63 47.7227 652.923 48.0579 653.756 48.7285C654.596 49.3991 655.016 50.4082 655.016 51.7559C655.016 53.6439 654.059 54.9199 652.145 55.584L656.021 62H654.059L650.602 56.0625H647.623ZM647.623 54.6367H649.898C651.07 54.6367 651.93 54.4056 652.477 53.9434C653.023 53.4746 653.297 52.7747 653.297 51.8438C653.297 50.8997 653.017 50.2194 652.457 49.8027C651.904 49.3861 651.012 49.1777 649.781 49.1777H647.623V54.6367ZM667.32 56.6387C667.32 58.3835 666.881 59.7474 666.002 60.7305C665.123 61.707 663.909 62.1953 662.359 62.1953C661.402 62.1953 660.553 61.9707 659.811 61.5215C659.068 61.0723 658.495 60.4277 658.092 59.5879C657.688 58.748 657.486 57.765 657.486 56.6387C657.486 54.8939 657.923 53.5365 658.795 52.5664C659.667 51.5898 660.878 51.1016 662.428 51.1016C663.925 51.1016 665.113 51.5996 665.992 52.5957C666.878 53.5918 667.32 54.9395 667.32 56.6387ZM659.166 56.6387C659.166 58.0059 659.439 59.0475 659.986 59.7637C660.533 60.4798 661.337 60.8379 662.398 60.8379C663.46 60.8379 664.264 60.4831 664.811 59.7734C665.364 59.0573 665.641 58.0124 665.641 56.6387C665.641 55.278 665.364 54.2461 664.811 53.543C664.264 52.8333 663.453 52.4785 662.379 52.4785C661.318 52.4785 660.517 52.8268 659.977 53.5234C659.436 54.2201 659.166 55.2585 659.166 56.6387ZM679.41 56.6387C679.41 58.3835 678.971 59.7474 678.092 60.7305C677.213 61.707 675.999 62.1953 674.449 62.1953C673.492 62.1953 672.643 61.9707 671.9 61.5215C671.158 61.0723 670.585 60.4277 670.182 59.5879C669.778 58.748 669.576 57.765 669.576 56.6387C669.576 54.8939 670.012 53.5365 670.885 52.5664C671.757 51.5898 672.968 51.1016 674.518 51.1016C676.015 51.1016 677.203 51.5996 678.082 52.5957C678.967 53.5918 679.41 54.9395 679.41 56.6387ZM671.256 56.6387C671.256 58.0059 671.529 59.0475 672.076 59.7637C672.623 60.4798 673.427 60.8379 674.488 60.8379C675.549 60.8379 676.354 60.4831 676.9 59.7734C677.454 59.0573 677.73 58.0124 677.73 56.6387C677.73 55.278 677.454 54.2461 676.9 53.543C676.354 52.8333 675.543 52.4785 674.469 52.4785C673.408 52.4785 672.607 52.8268 672.066 53.5234C671.526 54.2201 671.256 55.2585 671.256 56.6387ZM695.904 62V55.0371C695.904 54.1842 695.722 53.5462 695.357 53.123C694.993 52.6934 694.426 52.4785 693.658 52.4785C692.649 52.4785 691.904 52.7682 691.422 53.3477C690.94 53.9271 690.699 54.819 690.699 56.0234V62H689.078V55.0371C689.078 54.1842 688.896 53.5462 688.531 53.123C688.167 52.6934 687.597 52.4785 686.822 52.4785C685.807 52.4785 685.061 52.7845 684.586 53.3965C684.117 54.002 683.883 54.998 683.883 56.3848V62H682.262V51.2969H683.58L683.844 52.7617H683.922C684.228 52.2409 684.658 51.834 685.211 51.541C685.771 51.248 686.396 51.1016 687.086 51.1016C688.759 51.1016 689.853 51.707 690.367 52.918H690.445C690.764 52.3581 691.227 51.9154 691.832 51.5898C692.438 51.2643 693.128 51.1016 693.902 51.1016C695.113 51.1016 696.018 51.4141 696.617 52.0391C697.223 52.6576 697.525 53.6504 697.525 55.0176V62H695.904ZM707.779 59.0801C707.779 60.0762 707.408 60.8444 706.666 61.3848C705.924 61.9251 704.882 62.1953 703.541 62.1953C702.122 62.1953 701.015 61.9707 700.221 61.5215V60.0176C700.735 60.278 701.285 60.4831 701.871 60.6328C702.464 60.7826 703.033 60.8574 703.58 60.8574C704.426 60.8574 705.077 60.724 705.533 60.457C705.989 60.1836 706.217 59.7702 706.217 59.2168C706.217 58.8001 706.035 58.4453 705.67 58.1523C705.312 57.8529 704.609 57.5013 703.561 57.0977C702.564 56.7266 701.855 56.4043 701.432 56.1309C701.015 55.8509 700.702 55.5352 700.494 55.1836C700.292 54.832 700.191 54.4121 700.191 53.9238C700.191 53.0514 700.546 52.3646 701.256 51.8633C701.965 51.3555 702.939 51.1016 704.176 51.1016C705.328 51.1016 706.454 51.3359 707.555 51.8047L706.979 53.123C705.904 52.6803 704.931 52.459 704.059 52.459C703.29 52.459 702.711 52.5794 702.32 52.8203C701.93 53.0612 701.734 53.3932 701.734 53.8164C701.734 54.1029 701.806 54.347 701.949 54.5488C702.099 54.7507 702.337 54.9427 702.662 55.125C702.988 55.3073 703.613 55.571 704.537 55.916C705.807 56.3783 706.663 56.8438 707.105 57.3125C707.555 57.7812 707.779 58.3704 707.779 59.0801ZM720.445 52.5566H717.721V62H716.1V52.5566H714.186V51.8242L716.1 51.2383V50.6426C716.1 48.0124 717.249 46.6973 719.547 46.6973C720.113 46.6973 720.777 46.8112 721.539 47.0391L721.119 48.3379C720.494 48.1361 719.96 48.0352 719.518 48.0352C718.906 48.0352 718.453 48.2402 718.16 48.6504C717.867 49.054 717.721 49.7051 717.721 50.6035V51.2969H720.445V52.5566ZM731.637 56.6387C731.637 58.3835 731.197 59.7474 730.318 60.7305C729.439 61.707 728.225 62.1953 726.676 62.1953C725.719 62.1953 724.869 61.9707 724.127 61.5215C723.385 61.0723 722.812 60.4277 722.408 59.5879C722.005 58.748 721.803 57.765 721.803 56.6387C721.803 54.8939 722.239 53.5365 723.111 52.5664C723.984 51.5898 725.195 51.1016 726.744 51.1016C728.242 51.1016 729.43 51.5996 730.309 52.5957C731.194 53.5918 731.637 54.9395 731.637 56.6387ZM723.482 56.6387C723.482 58.0059 723.756 59.0475 724.303 59.7637C724.85 60.4798 725.654 60.8379 726.715 60.8379C727.776 60.8379 728.58 60.4831 729.127 59.7734C729.68 59.0573 729.957 58.0124 729.957 56.6387C729.957 55.278 729.68 54.2461 729.127 53.543C728.58 52.8333 727.77 52.4785 726.695 52.4785C725.634 52.4785 724.833 52.8268 724.293 53.5234C723.753 54.2201 723.482 55.2585 723.482 56.6387ZM739.371 51.1016C739.846 51.1016 740.273 51.1406 740.65 51.2188L740.426 52.7227C739.983 52.625 739.592 52.5762 739.254 52.5762C738.388 52.5762 737.646 52.9277 737.027 53.6309C736.415 54.334 736.109 55.2096 736.109 56.2578V62H734.488V51.2969H735.826L736.012 53.2793H736.09C736.487 52.5827 736.965 52.0456 737.525 51.668C738.085 51.2904 738.701 51.1016 739.371 51.1016Z" fill="#222222"/>
<path d="M648.888 87H647.78V79.877C647.78 79.2845 647.799 78.724 647.835 78.1953C647.739 78.291 647.632 78.3913 647.514 78.4961C647.395 78.6009 646.853 79.0452 645.887 79.8291L645.285 79.0498L647.931 77.0059H648.888V87ZM660.27 79.3711C660.602 79.3711 660.901 79.3984 661.165 79.4531L661.008 80.5059C660.698 80.4375 660.424 80.4033 660.188 80.4033C659.581 80.4033 659.062 80.6494 658.629 81.1416C658.201 81.6338 657.986 82.2467 657.986 82.9805V87H656.852V79.5078H657.788L657.918 80.8955H657.973C658.251 80.4079 658.586 80.0319 658.978 79.7676C659.369 79.5033 659.8 79.3711 660.27 79.3711ZM669.033 83.2471C669.033 84.4684 668.726 85.4232 668.11 86.1113C667.495 86.7949 666.645 87.1367 665.561 87.1367C664.891 87.1367 664.296 86.9795 663.776 86.665C663.257 86.3506 662.856 85.8994 662.573 85.3115C662.291 84.7236 662.149 84.0355 662.149 83.2471C662.149 82.0257 662.455 81.0755 663.065 80.3965C663.676 79.7129 664.524 79.3711 665.608 79.3711C666.657 79.3711 667.488 79.7197 668.104 80.417C668.723 81.1143 669.033 82.0576 669.033 83.2471ZM663.325 83.2471C663.325 84.2041 663.517 84.9333 663.899 85.4346C664.282 85.9359 664.845 86.1865 665.588 86.1865C666.331 86.1865 666.894 85.9382 667.276 85.4414C667.664 84.9401 667.857 84.2087 667.857 83.2471C667.857 82.2946 667.664 81.5723 667.276 81.0801C666.894 80.5833 666.326 80.335 665.574 80.335C664.831 80.335 664.271 80.5788 663.893 81.0664C663.514 81.554 663.325 82.2809 663.325 83.2471ZM677.496 83.2471C677.496 84.4684 677.188 85.4232 676.573 86.1113C675.958 86.7949 675.108 87.1367 674.023 87.1367C673.354 87.1367 672.759 86.9795 672.239 86.665C671.72 86.3506 671.319 85.8994 671.036 85.3115C670.754 84.7236 670.612 84.0355 670.612 83.2471C670.612 82.0257 670.918 81.0755 671.528 80.3965C672.139 79.7129 672.987 79.3711 674.071 79.3711C675.119 79.3711 675.951 79.7197 676.566 80.417C677.186 81.1143 677.496 82.0576 677.496 83.2471ZM671.788 83.2471C671.788 84.2041 671.979 84.9333 672.362 85.4346C672.745 85.9359 673.308 86.1865 674.051 86.1865C674.794 86.1865 675.356 85.9382 675.739 85.4414C676.127 84.9401 676.32 84.2087 676.32 83.2471C676.32 82.2946 676.127 81.5723 675.739 81.0801C675.356 80.5833 674.789 80.335 674.037 80.335C673.294 80.335 672.734 80.5788 672.355 81.0664C671.977 81.554 671.788 82.2809 671.788 83.2471ZM689.042 87V82.126C689.042 81.529 688.914 81.0824 688.659 80.7861C688.404 80.4854 688.007 80.335 687.47 80.335C686.763 80.335 686.242 80.5378 685.904 80.9434C685.567 81.349 685.398 81.9733 685.398 82.8164V87H684.264V82.126C684.264 81.529 684.136 81.0824 683.881 80.7861C683.626 80.4854 683.227 80.335 682.685 80.335C681.974 80.335 681.452 80.5492 681.119 80.9775C680.791 81.4014 680.627 82.0986 680.627 83.0693V87H679.492V79.5078H680.415L680.6 80.5332H680.654C680.868 80.1686 681.169 79.8838 681.557 79.6787C681.949 79.4736 682.386 79.3711 682.869 79.3711C684.04 79.3711 684.806 79.7949 685.166 80.6426H685.221C685.444 80.2507 685.768 79.9408 686.191 79.7129C686.615 79.485 687.098 79.3711 687.641 79.3711C688.488 79.3711 689.122 79.5898 689.541 80.0273C689.965 80.4603 690.177 81.1553 690.177 82.1123V87H689.042ZM693.711 85.373L693.813 85.5303C693.695 85.986 693.524 86.5146 693.301 87.1162C693.077 87.7223 692.845 88.2852 692.604 88.8047H691.749C691.872 88.3307 692.007 87.7451 692.152 87.0479C692.303 86.3506 692.408 85.7923 692.467 85.373H693.711ZM705.64 87H699.07V86.0225L701.702 83.377C702.504 82.5658 703.033 81.987 703.288 81.6406C703.543 81.2943 703.735 80.957 703.862 80.6289C703.99 80.3008 704.054 79.9476 704.054 79.5693C704.054 79.0361 703.892 78.6146 703.568 78.3047C703.245 77.9902 702.796 77.833 702.222 77.833C701.807 77.833 701.413 77.9014 701.039 78.0381C700.67 78.1748 700.257 78.4232 699.802 78.7832L699.2 78.0107C700.121 77.2451 701.123 76.8623 702.208 76.8623C703.147 76.8623 703.883 77.1038 704.416 77.5869C704.949 78.0654 705.216 78.7103 705.216 79.5215C705.216 80.1549 705.038 80.7816 704.683 81.4014C704.327 82.0212 703.662 82.805 702.687 83.7529L700.499 85.8926V85.9473H705.64V87ZM717.37 79.5078V80.2256L715.982 80.3896C716.11 80.5492 716.224 80.7588 716.324 81.0186C716.424 81.2738 716.475 81.5632 716.475 81.8867C716.475 82.6204 716.224 83.2061 715.723 83.6436C715.221 84.0811 714.533 84.2998 713.658 84.2998C713.435 84.2998 713.225 84.2816 713.029 84.2451C712.546 84.5003 712.305 84.8216 712.305 85.209C712.305 85.4141 712.389 85.5667 712.558 85.667C712.726 85.7627 713.016 85.8105 713.426 85.8105H714.752C715.563 85.8105 716.185 85.9814 716.618 86.3232C717.056 86.665 717.274 87.1618 717.274 87.8135C717.274 88.6429 716.942 89.2741 716.276 89.707C715.611 90.1445 714.64 90.3633 713.364 90.3633C712.384 90.3633 711.628 90.181 711.095 89.8164C710.566 89.4518 710.302 88.9368 710.302 88.2715C710.302 87.8158 710.448 87.4215 710.739 87.0889C711.031 86.7562 711.441 86.5306 711.97 86.4121C711.778 86.3255 711.617 86.1911 711.484 86.0088C711.357 85.8265 711.293 85.6146 711.293 85.373C711.293 85.0996 711.366 84.8604 711.512 84.6553C711.658 84.4502 711.888 84.252 712.202 84.0605C711.815 83.901 711.498 83.6299 711.252 83.2471C711.01 82.8643 710.89 82.4268 710.89 81.9346C710.89 81.1143 711.136 80.4831 711.628 80.041C712.12 79.5944 712.817 79.3711 713.72 79.3711C714.112 79.3711 714.465 79.4167 714.779 79.5078H717.37ZM711.396 88.2578C711.396 88.6634 711.566 88.971 711.908 89.1807C712.25 89.3903 712.74 89.4951 713.378 89.4951C714.33 89.4951 715.035 89.3516 715.49 89.0645C715.951 88.7819 716.181 88.3968 716.181 87.9092C716.181 87.5036 716.055 87.221 715.805 87.0615C715.554 86.9066 715.082 86.8291 714.39 86.8291H713.029C712.514 86.8291 712.113 86.9521 711.826 87.1982C711.539 87.4443 711.396 87.7975 711.396 88.2578ZM712.011 81.9072C712.011 82.4313 712.159 82.8278 712.455 83.0967C712.751 83.3656 713.164 83.5 713.692 83.5C714.8 83.5 715.354 82.9622 715.354 81.8867C715.354 80.7611 714.793 80.1982 713.672 80.1982C713.139 80.1982 712.729 80.3418 712.441 80.6289C712.154 80.916 712.011 81.3421 712.011 81.9072ZM719.975 79.5078V84.3682C719.975 84.9788 720.114 85.4346 720.392 85.7354C720.67 86.0361 721.105 86.1865 721.697 86.1865C722.481 86.1865 723.053 85.9723 723.413 85.5439C723.778 85.1156 723.96 84.416 723.96 83.4453V79.5078H725.095V87H724.158L723.994 85.9951H723.933C723.7 86.3643 723.377 86.6468 722.962 86.8428C722.552 87.0387 722.082 87.1367 721.554 87.1367C720.642 87.1367 719.959 86.9202 719.503 86.4873C719.052 86.0544 718.826 85.3617 718.826 84.4092V79.5078H719.975ZM730.673 87.1367C729.565 87.1367 728.69 86.7995 728.048 86.125C727.41 85.4505 727.091 84.514 727.091 83.3154C727.091 82.1077 727.387 81.1484 727.979 80.4375C728.576 79.7266 729.376 79.3711 730.379 79.3711C731.318 79.3711 732.061 79.681 732.607 80.3008C733.154 80.916 733.428 81.7295 733.428 82.7412V83.459H728.267C728.289 84.3385 728.51 85.0062 728.93 85.4619C729.354 85.9176 729.948 86.1455 730.714 86.1455C731.521 86.1455 732.318 85.9769 733.106 85.6396V86.6514C732.705 86.8245 732.325 86.9476 731.965 87.0205C731.609 87.098 731.179 87.1367 730.673 87.1367ZM730.365 80.3213C729.764 80.3213 729.283 80.5173 728.923 80.9092C728.567 81.3011 728.358 81.8434 728.294 82.5361H732.211C732.211 81.8206 732.051 81.2738 731.732 80.8955C731.413 80.5127 730.958 80.3213 730.365 80.3213ZM740.202 84.9561C740.202 85.6533 739.942 86.1911 739.423 86.5693C738.903 86.9476 738.174 87.1367 737.235 87.1367C736.242 87.1367 735.467 86.9795 734.911 86.665V85.6123C735.271 85.7946 735.656 85.9382 736.066 86.043C736.481 86.1478 736.88 86.2002 737.263 86.2002C737.855 86.2002 738.311 86.1068 738.63 85.9199C738.949 85.7285 739.108 85.4391 739.108 85.0518C739.108 84.7601 738.981 84.5117 738.726 84.3066C738.475 84.097 737.983 83.8509 737.249 83.5684C736.552 83.3086 736.055 83.083 735.759 82.8916C735.467 82.6956 735.248 82.4746 735.103 82.2285C734.961 81.9824 734.891 81.6885 734.891 81.3467C734.891 80.736 735.139 80.2552 735.636 79.9043C736.132 79.5488 736.814 79.3711 737.68 79.3711C738.486 79.3711 739.275 79.5352 740.045 79.8633L739.642 80.7861C738.89 80.4762 738.208 80.3213 737.598 80.3213C737.06 80.3213 736.654 80.4056 736.381 80.5742C736.107 80.7428 735.971 80.9753 735.971 81.2715C735.971 81.472 736.021 81.6429 736.121 81.7842C736.226 81.9255 736.392 82.0599 736.62 82.1875C736.848 82.3151 737.285 82.4997 737.933 82.7412C738.821 83.0648 739.421 83.3906 739.73 83.7188C740.045 84.0469 740.202 84.4593 740.202 84.9561ZM744.475 86.2002C744.675 86.2002 744.869 86.1865 745.056 86.1592C745.243 86.1273 745.391 86.0954 745.5 86.0635V86.9316C745.377 86.9909 745.195 87.0387 744.953 87.0752C744.716 87.1162 744.502 87.1367 744.311 87.1367C742.861 87.1367 742.137 86.3734 742.137 84.8467V80.3896H741.063V79.8428L742.137 79.3711L742.615 77.7715H743.271V79.5078H745.445V80.3896H743.271V84.7988C743.271 85.25 743.379 85.5964 743.593 85.8379C743.807 86.0794 744.101 86.2002 744.475 86.2002ZM751.837 84.9561C751.837 85.6533 751.577 86.1911 751.058 86.5693C750.538 86.9476 749.809 87.1367 748.87 87.1367C747.877 87.1367 747.102 86.9795 746.546 86.665V85.6123C746.906 85.7946 747.291 85.9382 747.701 86.043C748.116 86.1478 748.515 86.2002 748.897 86.2002C749.49 86.2002 749.946 86.1068 750.265 85.9199C750.584 85.7285 750.743 85.4391 750.743 85.0518C750.743 84.7601 750.616 84.5117 750.36 84.3066C750.11 84.097 749.618 83.8509 748.884 83.5684C748.187 83.3086 747.69 83.083 747.394 82.8916C747.102 82.6956 746.883 82.4746 746.737 82.2285C746.596 81.9824 746.525 81.6885 746.525 81.3467C746.525 80.736 746.774 80.2552 747.271 79.9043C747.767 79.5488 748.449 79.3711 749.314 79.3711C750.121 79.3711 750.91 79.5352 751.68 79.8633L751.276 80.7861C750.524 80.4762 749.843 80.3213 749.232 80.3213C748.695 80.3213 748.289 80.4056 748.016 80.5742C747.742 80.7428 747.605 80.9753 747.605 81.2715C747.605 81.472 747.656 81.6429 747.756 81.7842C747.861 81.9255 748.027 82.0599 748.255 82.1875C748.483 82.3151 748.92 82.4997 749.567 82.7412C750.456 83.0648 751.055 83.3906 751.365 83.7188C751.68 84.0469 751.837 84.4593 751.837 84.9561Z" fill="#555555"/>
<g clip-path="url(#clip3_4029_247)">
<path d="M622 53C622.791 53 623.564 52.7654 624.222 52.3259C624.88 51.8864 625.393 51.2616 625.696 50.5307C625.998 49.7998 626.077 48.9956 625.923 48.2196C625.769 47.4437 625.388 46.731 624.828 46.1716C624.269 45.6122 623.556 45.2312 622.78 45.0769C622.004 44.9225 621.2 45.0017 620.469 45.3045C619.738 45.6072 619.114 46.1199 618.674 46.7777C618.235 47.4355 618 48.2089 618 49C618 50.0609 618.421 51.0783 619.172 51.8284C619.922 52.5786 620.939 53 622 53Z" fill="#24AB70"/>
<path d="M628 63C628.265 63 628.52 62.8946 628.707 62.7071C628.895 62.5196 629 62.2652 629 62C629 60.1435 628.263 58.363 626.95 57.0503C625.637 55.7375 623.857 55 622 55C620.143 55 618.363 55.7375 617.05 57.0503C615.737 58.363 615 60.1435 615 62C615 62.2652 615.105 62.5196 615.293 62.7071C615.48 62.8946 615.735 63 616 63H628Z" fill="#24AB70"/>
</g>
<path d="M103.963 62V47.7227H105.623V60.4961H111.922V62H103.963ZM123.348 56.6387C123.348 58.3835 122.908 59.7474 122.029 60.7305C121.15 61.707 119.936 62.1953 118.387 62.1953C117.43 62.1953 116.58 61.9707 115.838 61.5215C115.096 61.0723 114.523 60.4277 114.119 59.5879C113.715 58.748 113.514 57.765 113.514 56.6387C113.514 54.8939 113.95 53.5365 114.822 52.5664C115.695 51.5898 116.906 51.1016 118.455 51.1016C119.952 51.1016 121.141 51.5996 122.02 52.5957C122.905 53.5918 123.348 54.9395 123.348 56.6387ZM115.193 56.6387C115.193 58.0059 115.467 59.0475 116.014 59.7637C116.561 60.4798 117.365 60.8379 118.426 60.8379C119.487 60.8379 120.291 60.4831 120.838 59.7734C121.391 59.0573 121.668 58.0124 121.668 56.6387C121.668 55.278 121.391 54.2461 120.838 53.543C120.291 52.8333 119.48 52.4785 118.406 52.4785C117.345 52.4785 116.544 52.8268 116.004 53.5234C115.464 54.2201 115.193 55.2585 115.193 56.6387ZM130.477 62.1953C128.927 62.1953 127.726 61.7201 126.873 60.7695C126.027 59.8125 125.604 58.4616 125.604 56.7168C125.604 54.9264 126.033 53.543 126.893 52.5664C127.758 51.5898 128.989 51.1016 130.584 51.1016C131.098 51.1016 131.613 51.1569 132.127 51.2676C132.641 51.3783 133.045 51.5085 133.338 51.6582L132.84 53.0352C132.482 52.8919 132.091 52.7747 131.668 52.6836C131.245 52.5859 130.87 52.5371 130.545 52.5371C128.37 52.5371 127.283 53.9238 127.283 56.6973C127.283 58.0124 127.547 59.0215 128.074 59.7246C128.608 60.4277 129.396 60.7793 130.438 60.7793C131.329 60.7793 132.244 60.5872 133.182 60.2031V61.6387C132.465 62.0098 131.564 62.1953 130.477 62.1953ZM142.312 62L141.99 60.4766H141.912C141.378 61.1471 140.844 61.6029 140.311 61.8438C139.783 62.0781 139.122 62.1953 138.328 62.1953C137.267 62.1953 136.434 61.9219 135.828 61.375C135.229 60.8281 134.93 60.0501 134.93 59.041C134.93 56.8796 136.658 55.7467 140.115 55.6426L141.932 55.584V54.9199C141.932 54.0801 141.749 53.4616 141.385 53.0645C141.027 52.6608 140.451 52.459 139.656 52.459C138.764 52.459 137.755 52.7324 136.629 53.2793L136.131 52.0391C136.658 51.7526 137.234 51.528 137.859 51.3652C138.491 51.2025 139.122 51.1211 139.754 51.1211C141.03 51.1211 141.974 51.4043 142.586 51.9707C143.204 52.5371 143.514 53.4453 143.514 54.6953V62H142.312ZM138.65 60.8574C139.66 60.8574 140.451 60.5807 141.023 60.0273C141.603 59.474 141.893 58.6992 141.893 57.7031V56.7363L140.271 56.8047C138.982 56.8503 138.051 57.0521 137.479 57.4102C136.912 57.7617 136.629 58.3118 136.629 59.0605C136.629 59.6465 136.805 60.0924 137.156 60.3984C137.514 60.7044 138.012 60.8574 138.65 60.8574ZM150.32 60.8574C150.607 60.8574 150.883 60.8379 151.15 60.7988C151.417 60.7533 151.629 60.7077 151.785 60.6621V61.9023C151.609 61.987 151.349 62.0553 151.004 62.1074C150.665 62.166 150.359 62.1953 150.086 62.1953C148.016 62.1953 146.98 61.1048 146.98 58.9238V52.5566H145.447V51.7754L146.98 51.1016L147.664 48.8164H148.602V51.2969H151.707V52.5566H148.602V58.8555C148.602 59.5 148.755 59.9948 149.061 60.3398C149.367 60.6849 149.786 60.8574 150.32 60.8574ZM155.555 62H153.934V51.2969H155.555V62ZM153.797 48.3965C153.797 48.0254 153.888 47.7552 154.07 47.5859C154.253 47.4102 154.48 47.3223 154.754 47.3223C155.014 47.3223 155.239 47.4102 155.428 47.5859C155.617 47.7617 155.711 48.0319 155.711 48.3965C155.711 48.7611 155.617 49.0345 155.428 49.2168C155.239 49.3926 155.014 49.4805 154.754 49.4805C154.48 49.4805 154.253 49.3926 154.07 49.2168C153.888 49.0345 153.797 48.7611 153.797 48.3965ZM168.23 56.6387C168.23 58.3835 167.791 59.7474 166.912 60.7305C166.033 61.707 164.819 62.1953 163.27 62.1953C162.312 62.1953 161.463 61.9707 160.721 61.5215C159.979 61.0723 159.406 60.4277 159.002 59.5879C158.598 58.748 158.396 57.765 158.396 56.6387C158.396 54.8939 158.833 53.5365 159.705 52.5664C160.577 51.5898 161.788 51.1016 163.338 51.1016C164.835 51.1016 166.023 51.5996 166.902 52.5957C167.788 53.5918 168.23 54.9395 168.23 56.6387ZM160.076 56.6387C160.076 58.0059 160.35 59.0475 160.896 59.7637C161.443 60.4798 162.247 60.8379 163.309 60.8379C164.37 60.8379 165.174 60.4831 165.721 59.7734C166.274 59.0573 166.551 58.0124 166.551 56.6387C166.551 55.278 166.274 54.2461 165.721 53.543C165.174 52.8333 164.363 52.4785 163.289 52.4785C162.228 52.4785 161.427 52.8268 160.887 53.5234C160.346 54.2201 160.076 55.2585 160.076 56.6387ZM178.406 62V55.0762C178.406 54.2038 178.208 53.5527 177.811 53.123C177.413 52.6934 176.792 52.4785 175.945 52.4785C174.826 52.4785 174.005 52.7812 173.484 53.3867C172.964 53.9922 172.703 54.9915 172.703 56.3848V62H171.082V51.2969H172.4L172.664 52.7617H172.742C173.074 52.2344 173.54 51.8275 174.139 51.541C174.738 51.248 175.405 51.1016 176.141 51.1016C177.43 51.1016 178.4 51.4141 179.051 52.0391C179.702 52.6576 180.027 53.6504 180.027 55.0176V62H178.406Z" fill="#222222"/>
<path d="M110.921 77.0059V83.4727C110.921 84.612 110.577 85.5075 109.889 86.1592C109.201 86.8109 108.255 87.1367 107.052 87.1367C105.849 87.1367 104.917 86.8086 104.256 86.1523C103.6 85.4961 103.271 84.5938 103.271 83.4453V77.0059H104.434V83.5273C104.434 84.3613 104.661 85.0016 105.117 85.4482C105.573 85.8949 106.243 86.1182 107.127 86.1182C107.97 86.1182 108.619 85.8949 109.075 85.4482C109.531 84.9971 109.759 84.3522 109.759 83.5137V77.0059H110.921ZM118.529 87V82.1533C118.529 81.5426 118.39 81.0869 118.112 80.7861C117.834 80.4854 117.399 80.335 116.807 80.335C116.023 80.335 115.449 80.5469 115.084 80.9707C114.719 81.3945 114.537 82.0941 114.537 83.0693V87H113.402V79.5078H114.325L114.51 80.5332H114.564C114.797 80.1641 115.123 79.8792 115.542 79.6787C115.961 79.4736 116.428 79.3711 116.943 79.3711C117.846 79.3711 118.525 79.5898 118.98 80.0273C119.436 80.4603 119.664 81.1553 119.664 82.1123V87H118.529ZM123.137 87H122.002V79.5078H123.137V87ZM121.906 77.4775C121.906 77.2178 121.97 77.0286 122.098 76.9102C122.225 76.7871 122.385 76.7256 122.576 76.7256C122.758 76.7256 122.916 76.7871 123.048 76.9102C123.18 77.0332 123.246 77.2223 123.246 77.4775C123.246 77.7327 123.18 77.9242 123.048 78.0518C122.916 78.1748 122.758 78.2363 122.576 78.2363C122.385 78.2363 122.225 78.1748 122.098 78.0518C121.97 77.9242 121.906 77.7327 121.906 77.4775ZM127.963 86.2002C128.163 86.2002 128.357 86.1865 128.544 86.1592C128.731 86.1273 128.879 86.0954 128.988 86.0635V86.9316C128.865 86.9909 128.683 87.0387 128.441 87.0752C128.204 87.1162 127.99 87.1367 127.799 87.1367C126.35 87.1367 125.625 86.3734 125.625 84.8467V80.3896H124.552V79.8428L125.625 79.3711L126.104 77.7715H126.76V79.5078H128.934V80.3896H126.76V84.7988C126.76 85.25 126.867 85.5964 127.081 85.8379C127.295 86.0794 127.589 86.2002 127.963 86.2002ZM133.657 87.1367C132.55 87.1367 131.675 86.7995 131.032 86.125C130.394 85.4505 130.075 84.514 130.075 83.3154C130.075 82.1077 130.371 81.1484 130.964 80.4375C131.561 79.7266 132.361 79.3711 133.363 79.3711C134.302 79.3711 135.045 79.681 135.592 80.3008C136.139 80.916 136.412 81.7295 136.412 82.7412V83.459H131.251C131.274 84.3385 131.495 85.0062 131.914 85.4619C132.338 85.9176 132.933 86.1455 133.698 86.1455C134.505 86.1455 135.302 85.9769 136.091 85.6396V86.6514C135.69 86.8245 135.309 86.9476 134.949 87.0205C134.594 87.098 134.163 87.1367 133.657 87.1367ZM133.35 80.3213C132.748 80.3213 132.267 80.5173 131.907 80.9092C131.552 81.3011 131.342 81.8434 131.278 82.5361H135.195C135.195 81.8206 135.036 81.2738 134.717 80.8955C134.398 80.5127 133.942 80.3213 133.35 80.3213ZM143.453 85.9951H143.392C142.868 86.7562 142.084 87.1367 141.04 87.1367C140.06 87.1367 139.297 86.8018 138.75 86.1318C138.208 85.4619 137.937 84.5094 137.937 83.2744C137.937 82.0394 138.21 81.0801 138.757 80.3965C139.304 79.7129 140.065 79.3711 141.04 79.3711C142.056 79.3711 142.836 79.7402 143.378 80.4785H143.467L143.419 79.9385L143.392 79.4121V76.3633H144.526V87H143.604L143.453 85.9951ZM141.184 86.1865C141.958 86.1865 142.519 85.9769 142.865 85.5576C143.216 85.1338 143.392 84.4525 143.392 83.5137V83.2744C143.392 82.2126 143.214 81.4561 142.858 81.0049C142.507 80.5492 141.945 80.3213 141.17 80.3213C140.505 80.3213 139.994 80.5811 139.639 81.1006C139.288 81.6156 139.112 82.3447 139.112 83.2881C139.112 84.2451 139.288 84.9674 139.639 85.4551C139.99 85.9427 140.505 86.1865 141.184 86.1865ZM156.387 84.3408C156.387 85.2204 156.068 85.9062 155.43 86.3984C154.792 86.8906 153.926 87.1367 152.832 87.1367C151.647 87.1367 150.736 86.984 150.098 86.6787V85.5576C150.508 85.7308 150.954 85.8675 151.438 85.9678C151.921 86.068 152.399 86.1182 152.873 86.1182C153.648 86.1182 154.231 85.9723 154.623 85.6807C155.015 85.3844 155.211 84.9743 155.211 84.4502C155.211 84.1038 155.14 83.8213 154.999 83.6025C154.862 83.3792 154.63 83.1742 154.302 82.9873C153.978 82.8005 153.484 82.5885 152.818 82.3516C151.889 82.0189 151.223 81.6247 150.822 81.1689C150.426 80.7132 150.228 80.1185 150.228 79.3848C150.228 78.6146 150.517 78.0016 151.096 77.5459C151.674 77.0902 152.44 76.8623 153.393 76.8623C154.386 76.8623 155.3 77.0446 156.134 77.4092L155.771 78.4209C154.947 78.0745 154.145 77.9014 153.365 77.9014C152.75 77.9014 152.269 78.0335 151.923 78.2979C151.576 78.5622 151.403 78.929 151.403 79.3984C151.403 79.7448 151.467 80.0296 151.595 80.2529C151.722 80.4717 151.937 80.6745 152.237 80.8613C152.543 81.0436 153.007 81.2464 153.632 81.4697C154.68 81.8434 155.4 82.2445 155.792 82.6729C156.188 83.1012 156.387 83.6572 156.387 84.3408ZM160.68 86.2002C160.88 86.2002 161.074 86.1865 161.261 86.1592C161.448 86.1273 161.596 86.0954 161.705 86.0635V86.9316C161.582 86.9909 161.4 87.0387 161.158 87.0752C160.921 87.1162 160.707 87.1367 160.516 87.1367C159.066 87.1367 158.342 86.3734 158.342 84.8467V80.3896H157.269V79.8428L158.342 79.3711L158.82 77.7715H159.477V79.5078H161.65V80.3896H159.477V84.7988C159.477 85.25 159.584 85.5964 159.798 85.8379C160.012 86.0794 160.306 86.2002 160.68 86.2002ZM167.816 87L167.591 85.9336H167.536C167.162 86.403 166.789 86.722 166.415 86.8906C166.046 87.0547 165.583 87.1367 165.027 87.1367C164.285 87.1367 163.701 86.9453 163.277 86.5625C162.858 86.1797 162.648 85.6351 162.648 84.9287C162.648 83.4157 163.858 82.6227 166.278 82.5498L167.55 82.5088V82.0439C167.55 81.4561 167.422 81.0231 167.167 80.7451C166.916 80.4626 166.513 80.3213 165.957 80.3213C165.333 80.3213 164.626 80.5127 163.838 80.8955L163.489 80.0273C163.858 79.8268 164.262 79.6696 164.699 79.5557C165.141 79.4417 165.583 79.3848 166.025 79.3848C166.919 79.3848 167.579 79.583 168.008 79.9795C168.441 80.376 168.657 81.0117 168.657 81.8867V87H167.816ZM165.253 86.2002C165.959 86.2002 166.513 86.0065 166.914 85.6191C167.32 85.2318 167.522 84.6895 167.522 83.9922V83.3154L166.388 83.3633C165.485 83.3952 164.834 83.5365 164.433 83.7871C164.036 84.0332 163.838 84.4183 163.838 84.9424C163.838 85.3525 163.961 85.6647 164.207 85.8789C164.458 86.0931 164.806 86.2002 165.253 86.2002ZM173.422 86.2002C173.622 86.2002 173.816 86.1865 174.003 86.1592C174.19 86.1273 174.338 86.0954 174.447 86.0635V86.9316C174.324 86.9909 174.142 87.0387 173.9 87.0752C173.663 87.1162 173.449 87.1367 173.258 87.1367C171.809 87.1367 171.084 86.3734 171.084 84.8467V80.3896H170.011V79.8428L171.084 79.3711L171.562 77.7715H172.219V79.5078H174.393V80.3896H172.219V84.7988C172.219 85.25 172.326 85.5964 172.54 85.8379C172.754 86.0794 173.048 86.2002 173.422 86.2002ZM179.116 87.1367C178.009 87.1367 177.134 86.7995 176.491 86.125C175.853 85.4505 175.534 84.514 175.534 83.3154C175.534 82.1077 175.83 81.1484 176.423 80.4375C177.02 79.7266 177.82 79.3711 178.822 79.3711C179.761 79.3711 180.504 79.681 181.051 80.3008C181.598 80.916 181.871 81.7295 181.871 82.7412V83.459H176.71C176.733 84.3385 176.954 85.0062 177.373 85.4619C177.797 85.9176 178.392 86.1455 179.157 86.1455C179.964 86.1455 180.761 85.9769 181.55 85.6396V86.6514C181.149 86.8245 180.768 86.9476 180.408 87.0205C180.053 87.098 179.622 87.1367 179.116 87.1367ZM178.809 80.3213C178.207 80.3213 177.726 80.5173 177.366 80.9092C177.011 81.3011 176.801 81.8434 176.737 82.5361H180.654C180.654 81.8206 180.495 81.2738 180.176 80.8955C179.857 80.5127 179.401 80.3213 178.809 80.3213ZM188.646 84.9561C188.646 85.6533 188.386 86.1911 187.866 86.5693C187.347 86.9476 186.618 87.1367 185.679 87.1367C184.685 87.1367 183.91 86.9795 183.354 86.665V85.6123C183.715 85.7946 184.1 85.9382 184.51 86.043C184.924 86.1478 185.323 86.2002 185.706 86.2002C186.299 86.2002 186.754 86.1068 187.073 85.9199C187.392 85.7285 187.552 85.4391 187.552 85.0518C187.552 84.7601 187.424 84.5117 187.169 84.3066C186.918 84.097 186.426 83.8509 185.692 83.5684C184.995 83.3086 184.498 83.083 184.202 82.8916C183.91 82.6956 183.692 82.4746 183.546 82.2285C183.405 81.9824 183.334 81.6885 183.334 81.3467C183.334 80.736 183.582 80.2552 184.079 79.9043C184.576 79.5488 185.257 79.3711 186.123 79.3711C186.93 79.3711 187.718 79.5352 188.488 79.8633L188.085 80.7861C187.333 80.4762 186.652 80.3213 186.041 80.3213C185.503 80.3213 185.098 80.4056 184.824 80.5742C184.551 80.7428 184.414 80.9753 184.414 81.2715C184.414 81.472 184.464 81.6429 184.564 81.7842C184.669 81.9255 184.836 82.0599 185.063 82.1875C185.291 82.3151 185.729 82.4997 186.376 82.7412C187.265 83.0648 187.864 83.3906 188.174 83.7188C188.488 84.0469 188.646 84.4593 188.646 84.9561Z" fill="#555555"/>
<g clip-path="url(#clip4_4029_247)">
<path d="M80 53C80.8284 53 81.5 52.3284 81.5 51.5C81.5 50.6716 80.8284 50 80 50C79.1716 50 78.5 50.6716 78.5 51.5C78.5 52.3284 79.1716 53 80 53Z" fill="#24AB70"/>
<path d="M80 44C77.8921 43.9999 75.8693 44.8318 74.3712 46.3148C72.8732 47.7978 72.0211 49.8122 72 51.92C72 57.4 79.05 63.5 79.35 63.76C79.5311 63.9149 79.7616 64.0001 80 64.0001C80.2384 64.0001 80.4689 63.9149 80.65 63.76C81 63.5 88 57.4 88 51.92C87.9789 49.8122 87.1268 47.7978 85.6288 46.3148C84.1307 44.8318 82.1079 43.9999 80 44ZM80 55C79.3078 55 78.6311 54.7947 78.0555 54.4101C77.4799 54.0256 77.0313 53.4789 76.7664 52.8394C76.5015 52.1999 76.4322 51.4961 76.5673 50.8172C76.7023 50.1382 77.0356 49.5146 77.5251 49.0251C78.0146 48.5356 78.6382 48.2023 79.3172 48.0673C79.9961 47.9322 80.6999 48.0015 81.3394 48.2664C81.9789 48.5313 82.5256 48.9799 82.9101 49.5555C83.2947 50.1311 83.5 50.8078 83.5 51.5C83.5 52.4283 83.1313 53.3185 82.4749 53.9749C81.8185 54.6313 80.9283 55 80 55Z" fill="#24AB70"/>
</g>
<defs>
<filter id="filter0_d_4029_247" x="0" y="0" width="1076" height="176" filterUnits="userSpaceOnUse" color-interpolation-filters="sRGB">
<feFlood flood-opacity="0" result="BackgroundImageFix"/>
<feColorMatrix in="SourceAlpha" type="matrix" values="0 0 0 0 0 0 0 0 0 0 0 0 0 0 0 0 0 0 127 0" result="hardAlpha"/>
<feOffset dy="22"/>
<feGaussianBlur stdDeviation="19"/>
<feComposite in2="hardAlpha" operator="out"/>
<feColorMatrix type="matrix" values="0 0 0 0 0 0 0 0 0 0.133333 0 0 0 0 0.0750617 0 0 0 0.08 0"/>
<feBlend mode="normal" in2="BackgroundImageFix" result="effect1_dropShadow_4029_247"/>
<feBlend mode="normal" in="SourceGraphic" in2="effect1_dropShadow_4029_247" result="shape"/>
</filter>
<clipPath id="clip0_4029_247">
<rect width="24" height="24" fill="white" transform="translate(884 54)"/>
</clipPath>
<clipPath id="clip1_4029_247">
<rect width="24" height="24" fill="white" transform="translate(250 42)"/>
</clipPath>
<clipPath id="clip2_4029_247">
<rect width="24" height="24" fill="white" transform="translate(423 42)"/>
</clipPath>
<clipPath id="clip3_4029_247">
<rect width="24" height="24" fill="white" transform="translate(610 42)"/>
</clipPath>
<clipPath id="clip4_4029_247">
<rect width="24" height="24" fill="white" transform="translate(68 42)"/>
</clipPath>
</defs>
</svg>
